<?xml version="1.0" encoding="UTF-8"?>
<svg xmlns="http://www.w3.org/2000/svg" xmlns:xlink="http://www.w3.org/1999/xlink" width="24pt" height="24pt" viewBox="0 0 24 24" version="1.1">
<g id="surface1">
<path style=" stroke:none;fill-rule:nonzero;fill:rgb(58.039216%,75.686275%,100%);fill-opacity:1;" d="M 23.601562 12 C 23.601562 5.59375 18.40625 0.398438 12 0.398438 C 5.59375 0.398438 0.398438 5.59375 0.398438 12 Z M 23.601562 12 "/>
<path style=" stroke:none;fill-rule:nonzero;fill:rgb(5.490196%,39.607843%,89.803922%);fill-opacity:1;" d="M 24 12.398438 L 0 12.398438 L 0 12 C 0 5.382812 5.382812 0 12 0 C 18.617188 0 24 5.382812 24 12 Z M 0.808594 11.601562 L 23.191406 11.601562 C 22.980469 5.609375 18.042969 0.800781 12 0.800781 C 5.957031 0.800781 1.019531 5.609375 0.808594 11.601562 Z M 0.808594 11.601562 "/>
<path style=" stroke:none;fill-rule:nonzero;fill:rgb(100%,100%,100%);fill-opacity:1;" d="M 23.601562 12 C 23.601562 18.40625 18.40625 23.601562 12 23.601562 C 5.59375 23.601562 0.398438 18.40625 0.398438 12 Z M 23.601562 12 "/>
<path style=" stroke:none;fill-rule:nonzero;fill:rgb(5.490196%,39.607843%,89.803922%);fill-opacity:1;" d="M 12 24 C 5.382812 24 0 18.617188 0 12 C 0 11.777344 0.179688 11.601562 0.398438 11.601562 L 23.601562 11.601562 C 23.820312 11.601562 24 11.777344 24 12 C 24 18.617188 18.617188 24 12 24 Z M 0.808594 12.398438 C 1.019531 18.390625 5.957031 23.199219 12 23.199219 C 18.042969 23.199219 22.980469 18.390625 23.191406 12.398438 Z M 0.808594 12.398438 "/>
<path style=" stroke:none;fill-rule:nonzero;fill:rgb(5.490196%,39.607843%,89.803922%);fill-opacity:1;" d="M 12 21.199219 C 6.417969 21.199219 1.753906 17.253906 0.648438 12 L 0.398438 12 C 0.398438 18.40625 5.59375 23.601562 12 23.601562 C 18.40625 23.601562 23.601562 18.40625 23.601562 12 L 23.351562 12 C 22.242188 17.253906 17.582031 21.199219 12 21.199219 Z M 12 21.199219 "/>
<path style=" stroke:none;fill-rule:nonzero;fill:rgb(5.490196%,39.607843%,89.803922%);fill-opacity:1;" d="M 12 24 C 5.382812 24 0 18.617188 0 12 C 0 11.777344 0.179688 11.601562 0.398438 11.601562 L 0.648438 11.601562 C 0.839844 11.601562 1.003906 11.734375 1.042969 11.917969 C 2.125 17.066406 6.734375 20.800781 12 20.800781 C 17.265625 20.800781 21.875 17.066406 22.957031 11.917969 C 22.996094 11.734375 23.160156 11.601562 23.351562 11.601562 L 23.601562 11.601562 C 23.820312 11.601562 24 11.777344 24 12 C 24 18.617188 18.617188 24 12 24 Z M 1.117188 14.660156 C 2.316406 19.554688 6.738281 23.199219 12 23.199219 C 17.261719 23.199219 21.683594 19.554688 22.882812 14.660156 C 20.945312 18.800781 16.71875 21.601562 12 21.601562 C 7.28125 21.601562 3.054688 18.800781 1.117188 14.660156 Z M 1.117188 14.660156 "/>
<path style=" stroke:none;fill-rule:nonzero;fill:rgb(36.078431%,61.960784%,100%);fill-opacity:1;" d="M 16.398438 12 C 16.398438 14.429688 14.429688 16.398438 12 16.398438 C 9.570312 16.398438 7.601562 14.429688 7.601562 12 C 7.601562 9.570312 9.570312 7.601562 12 7.601562 C 14.429688 7.601562 16.398438 9.570312 16.398438 12 Z M 16.398438 12 "/>
<path style=" stroke:none;fill-rule:nonzero;fill:rgb(5.490196%,39.607843%,89.803922%);fill-opacity:1;" d="M 12 16.800781 C 9.351562 16.800781 7.199219 14.648438 7.199219 12 C 7.199219 9.351562 9.351562 7.199219 12 7.199219 C 14.648438 7.199219 16.800781 9.351562 16.800781 12 C 16.800781 14.648438 14.648438 16.800781 12 16.800781 Z M 12 8 C 9.792969 8 8 9.792969 8 12 C 8 14.207031 9.792969 16 12 16 C 14.207031 16 16 14.207031 16 12 C 16 9.792969 14.207031 8 12 8 Z M 12 8 "/>
<path style=" stroke:none;fill-rule:nonzero;fill:rgb(100%,100%,100%);fill-opacity:1;" d="M 14.800781 12 C 14.800781 13.546875 13.546875 14.800781 12 14.800781 C 10.453125 14.800781 9.199219 13.546875 9.199219 12 C 9.199219 10.453125 10.453125 9.199219 12 9.199219 C 13.546875 9.199219 14.800781 10.453125 14.800781 12 Z M 14.800781 12 "/>
<path style=" stroke:none;fill-rule:nonzero;fill:rgb(5.490196%,39.607843%,89.803922%);fill-opacity:1;" d="M 12 15.199219 C 10.234375 15.199219 8.800781 13.765625 8.800781 12 C 8.800781 10.234375 10.234375 8.800781 12 8.800781 C 13.765625 8.800781 15.199219 10.234375 15.199219 12 C 15.199219 13.765625 13.765625 15.199219 12 15.199219 Z M 12 9.601562 C 10.675781 9.601562 9.601562 10.675781 9.601562 12 C 9.601562 13.324219 10.675781 14.398438 12 14.398438 C 13.324219 14.398438 14.398438 13.324219 14.398438 12 C 14.398438 10.675781 13.324219 9.601562 12 9.601562 Z M 12 9.601562 "/>
<path style=" stroke:none;fill-rule:nonzero;fill:rgb(100%,100%,100%);fill-opacity:1;" d="M 3.699219 8.429688 C 3.640625 8.429688 3.582031 8.417969 3.527344 8.390625 C 3.328125 8.292969 3.242188 8.054688 3.339844 7.855469 C 4.230469 5.992188 5.730469 4.441406 7.566406 3.484375 C 7.761719 3.382812 8.003906 3.457031 8.105469 3.652344 C 8.207031 3.847656 8.128906 4.089844 7.933594 4.191406 C 6.253906 5.070312 4.878906 6.492188 4.058594 8.203125 C 3.992188 8.34375 3.847656 8.429688 3.699219 8.429688 Z M 3.699219 8.429688 "/>
<path style=" stroke:none;fill-rule:nonzero;fill:rgb(100%,100%,100%);fill-opacity:1;" d="M 19.199219 10.800781 C 18.980469 10.800781 18.800781 10.621094 18.800781 10.398438 L 18.800781 8.800781 C 18.800781 8.578125 18.980469 8.398438 19.199219 8.398438 C 19.421875 8.398438 19.601562 8.578125 19.601562 8.800781 L 19.601562 10.398438 C 19.601562 10.621094 19.421875 10.800781 19.199219 10.800781 Z M 19.199219 10.800781 "/>
<path style=" stroke:none;fill-rule:nonzero;fill:rgb(100%,100%,100%);fill-opacity:1;" d="M 20 10 L 18.398438 10 C 18.179688 10 18 9.820312 18 9.601562 C 18 9.378906 18.179688 9.199219 18.398438 9.199219 L 20 9.199219 C 20.222656 9.199219 20.398438 9.378906 20.398438 9.601562 C 20.398438 9.820312 20.222656 10 20 10 Z M 20 10 "/>
<path style=" stroke:none;fill-rule:nonzero;fill:rgb(100%,100%,100%);fill-opacity:1;" d="M 8.398438 21.601562 C 8.179688 21.601562 8 21.421875 8 21.199219 L 8 19.601562 C 8 19.378906 8.179688 19.199219 8.398438 19.199219 C 8.621094 19.199219 8.800781 19.378906 8.800781 19.601562 L 8.800781 21.199219 C 8.800781 21.421875 8.621094 21.601562 8.398438 21.601562 Z M 8.398438 21.601562 "/>
<path style=" stroke:none;fill-rule:nonzero;fill:rgb(100%,100%,100%);fill-opacity:1;" d="M 9.199219 20.800781 L 7.601562 20.800781 C 7.378906 20.800781 7.199219 20.621094 7.199219 20.398438 C 7.199219 20.179688 7.378906 20 7.601562 20 L 9.199219 20 C 9.421875 20 9.601562 20.179688 9.601562 20.398438 C 9.601562 20.621094 9.421875 20.800781 9.199219 20.800781 Z M 9.199219 20.800781 "/>
</g>
</svg>
